<svg width="405" height="47" viewBox="0 0 405 47" fill="none" xmlns="http://www.w3.org/2000/svg">
<path d="M31.24 19.632C34.7813 19.632 37.5333 20.72 39.496 22.896C41.5013 25.072 42.504 28.08 42.504 31.92V46H35.656V31.92C35.656 30.0853 35.208 28.656 34.312 27.632C33.4587 26.5653 32.2427 26.032 30.664 26.032C29.0427 26.032 27.6987 26.5867 26.632 27.696C25.5653 28.8053 25.032 30.2133 25.032 31.92V46H18.184V31.92C18.184 30.1707 17.6933 28.7627 16.712 27.696C15.7733 26.5867 14.5147 26.032 12.936 26.032C11.2293 26.032 9.90667 26.544 8.968 27.568C8.02933 28.592 7.56 30.0427 7.56 31.92V46H0.712V31.92C0.712 28.08 1.77867 25.072 3.912 22.896C6.04533 20.72 8.98933 19.632 12.744 19.632C16.712 19.632 19.6987 21.232 21.704 24.432C23.9653 21.232 27.144 19.632 31.24 19.632ZM57.1315 13.36C56.3208 14.1707 55.2542 14.576 53.9315 14.576C52.6088 14.576 51.5422 14.192 50.7315 13.424C49.9635 12.6133 49.5795 11.568 49.5795 10.288C49.5795 9.008 49.9848 7.96267 50.7955 7.152C51.6062 6.34133 52.6515 5.936 53.9315 5.936C55.2542 5.936 56.3208 6.34133 57.1315 7.152C57.9422 7.96267 58.3475 9.008 58.3475 10.288C58.3475 11.5253 57.9422 12.5493 57.1315 13.36ZM50.5395 46V20.4H57.3875V46H50.5395ZM66.102 46V1.2H72.95V46H66.102ZM105.281 32.24C105.281 33.3493 105.195 34.416 105.025 35.44L85.8885 35.504C86.3578 37.2533 87.2325 38.6827 88.5125 39.792C89.8352 40.8587 91.4778 41.392 93.4405 41.392C95.7018 41.392 98.0912 40.4747 100.609 38.64L104.257 42.608C101.398 45.3813 97.7072 46.768 93.1845 46.768C89.0458 46.768 85.6752 45.488 83.0725 42.928C80.4698 40.368 79.1685 37.0827 79.1685 33.072C79.1685 29.104 80.4272 25.8827 82.9445 23.408C85.5045 20.8907 88.7685 19.632 92.7365 19.632C96.5338 19.632 99.5632 20.784 101.825 23.088C104.129 25.3493 105.281 28.4 105.281 32.24ZM92.7365 25.008C91.1152 25.008 89.6858 25.4773 88.4485 26.416C87.2112 27.312 86.3792 28.5493 85.9525 30.128H98.9445C98.6032 28.5067 97.8778 27.248 96.7685 26.352C95.6592 25.456 94.3152 25.008 92.7365 25.008ZM148.53 42.928C145.927 45.488 142.621 46.768 138.61 46.768C134.599 46.768 131.293 45.488 128.69 42.928C126.087 40.368 124.786 37.1253 124.786 33.2C124.786 29.2747 126.087 26.032 128.69 23.472C131.335 20.912 134.663 19.632 138.674 19.632C142.685 19.632 145.97 20.912 148.53 23.472C151.133 25.9893 152.434 29.2107 152.434 33.136C152.434 37.104 151.133 40.368 148.53 42.928ZM138.674 40.432C140.679 40.432 142.322 39.7493 143.602 38.384C144.925 37.0187 145.586 35.2907 145.586 33.2C145.586 31.1093 144.925 29.3813 143.602 28.016C142.279 26.6507 140.615 25.968 138.61 25.968C136.605 25.968 134.941 26.6507 133.618 28.016C132.295 29.3387 131.634 31.0453 131.634 33.136C131.634 35.2693 132.295 37.0187 133.618 38.384C134.941 39.7493 136.626 40.432 138.674 40.432ZM173.584 7.024C171.579 7.024 169.936 7.68533 168.656 9.008C167.419 10.3307 166.8 12.272 166.8 14.832V20.4H175.12V26.16H166.8V46H159.952V26.16H155.472V20.4H159.952V16.112C159.952 11.376 161.189 7.62133 163.664 4.848C166.181 2.07467 169.531 0.688 173.712 0.688C176.613 0.688 179.152 1.34933 181.328 2.672L178.192 8.56C176.912 7.536 175.376 7.024 173.584 7.024ZM228.477 7.6V14.128H214.845V46H207.357V14.128H193.725V7.6H228.477ZM248.653 19.632C251.725 19.632 254.199 20.656 256.077 22.704C257.954 24.7093 258.893 27.3547 258.893 30.64V46H252.109V32.176C252.109 30.3413 251.639 28.848 250.701 27.696C249.805 26.5013 248.525 25.904 246.861 25.904C244.983 25.904 243.362 26.608 241.997 28.016C240.674 29.3813 240.013 31.1093 240.013 33.2V46H233.165V1.2H240.013V23.28C242.317 20.848 245.197 19.632 248.653 19.632ZM273.185 25.648C275.66 21.808 279.201 19.888 283.809 19.888V26.8H282.145C279.756 26.8 277.665 27.5467 275.873 29.04C274.081 30.4907 273.185 32.624 273.185 35.44V46H266.337V20.4H273.185V25.648ZM312.781 32.24C312.781 33.3493 312.695 34.416 312.525 35.44L293.389 35.504C293.858 37.2533 294.733 38.6827 296.013 39.792C297.335 40.8587 298.978 41.392 300.941 41.392C303.202 41.392 305.591 40.4747 308.109 38.64L311.757 42.608C308.898 45.3813 305.207 46.768 300.685 46.768C296.546 46.768 293.175 45.488 290.573 42.928C287.97 40.368 286.669 37.0827 286.669 33.072C286.669 29.104 287.927 25.8827 290.445 23.408C293.005 20.8907 296.269 19.632 300.237 19.632C304.034 19.632 307.063 20.784 309.325 23.088C311.629 25.3493 312.781 28.4 312.781 32.24ZM300.237 25.008C298.615 25.008 297.186 25.4773 295.949 26.416C294.711 27.312 293.879 28.5493 293.453 30.128H306.445C306.103 28.5067 305.378 27.248 304.269 26.352C303.159 25.456 301.815 25.008 300.237 25.008ZM337.775 20.4H344.559V46H337.775V43.184C335.77 45.5733 333.124 46.768 329.839 46.768C326.212 46.768 323.14 45.488 320.623 42.928C318.148 40.368 316.911 37.1253 316.911 33.2C316.911 29.2747 318.148 26.032 320.623 23.472C323.14 20.912 326.212 19.632 329.839 19.632C333.124 19.632 335.77 20.8267 337.775 23.216V20.4ZM325.743 38.576C327.151 39.856 328.836 40.496 330.799 40.496C332.762 40.496 334.468 39.856 335.919 38.576C337.37 37.2533 338.095 35.4613 338.095 33.2C338.095 30.896 337.37 29.104 335.919 27.824C334.511 26.544 332.826 25.904 330.863 25.904C328.9 25.904 327.215 26.544 325.807 27.824C324.399 29.104 323.695 30.896 323.695 33.2C323.695 35.504 324.378 37.296 325.743 38.576ZM370.65 1.2H377.434V46H370.65V43.184C368.645 45.5733 365.999 46.768 362.714 46.768C359.087 46.768 356.015 45.488 353.498 42.928C351.023 40.368 349.786 37.1253 349.786 33.2C349.786 29.2747 351.023 26.032 353.498 23.472C356.015 20.912 359.087 19.632 362.714 19.632C365.999 19.632 368.645 20.8267 370.65 23.216V1.2ZM358.618 38.576C360.026 39.856 361.711 40.496 363.674 40.496C365.637 40.496 367.343 39.856 368.794 38.576C370.245 37.2533 370.97 35.44 370.97 33.136C370.97 30.8747 370.245 29.104 368.794 27.824C367.386 26.544 365.701 25.904 363.738 25.904C361.775 25.904 360.09 26.544 358.682 27.824C357.274 29.104 356.57 30.896 356.57 33.2C356.57 35.504 357.253 37.296 358.618 38.576ZM393.733 46.832C389.296 46.832 385.733 45.2107 383.045 41.968L387.589 38.384C389.936 40.3467 392.154 41.328 394.245 41.328C395.482 41.328 396.421 41.0933 397.061 40.624C397.744 40.112 398.085 39.4933 398.085 38.768C398.085 38.2133 397.808 37.744 397.253 37.36C396.741 36.9333 396.208 36.6347 395.653 36.464C395.141 36.2507 394.288 35.9947 393.093 35.696C391.77 35.3547 390.725 35.056 389.957 34.8C389.189 34.544 388.293 34.1387 387.269 33.584C386.245 32.9867 385.477 32.2187 384.965 31.28C384.496 30.3413 384.261 29.1893 384.261 27.824C384.261 25.264 385.157 23.2373 386.949 21.744C388.784 20.2507 391.088 19.504 393.861 19.504C398.17 19.504 401.52 21.0827 403.909 24.24L399.429 27.888C397.85 26.0107 396.037 25.072 393.989 25.072C392.922 25.072 392.09 25.328 391.493 25.84C390.896 26.3093 390.597 26.8853 390.597 27.568C390.597 28.1227 390.853 28.6133 391.365 29.04C391.877 29.424 392.389 29.7013 392.901 29.872C393.456 30 394.309 30.2133 395.461 30.512C396.528 30.768 397.338 30.9813 397.893 31.152C398.448 31.3227 399.194 31.6213 400.133 32.048C401.072 32.432 401.776 32.88 402.245 33.392C402.714 33.8613 403.141 34.5227 403.525 35.376C403.909 36.1867 404.101 37.1253 404.101 38.192C404.101 40.752 403.162 42.8427 401.285 44.464C399.408 46.0427 396.89 46.832 393.733 46.832Z" fill="#312C2C"/>
</svg>
