<svg width="28" height="28" viewBox="0 0 28 28" fill="none" xmlns="http://www.w3.org/2000/svg">
<mask id="mask0_271_630" style="mask-type:alpha" maskUnits="userSpaceOnUse" x="0" y="0" width="28" height="28">
<rect width="28" height="28" fill="#1C1B1F"/>
</mask>
<g mask="url(#mask0_271_630)">
<path d="M12.5833 22.449L10.8962 20.9144C8.82759 19.0283 6.98074 17.1755 5.35563 15.3559C3.73052 13.5364 2.91797 11.5871 2.91797 9.50805C2.91797 7.8523 3.47625 6.46614 4.59281 5.34958C5.70936 4.23302 7.09552 3.67474 8.75127 3.67474C9.69207 3.67474 10.6213 3.89163 11.5389 4.32539C12.4566 4.75916 13.2773 5.46365 14.0013 6.43887C14.7252 5.46365 15.546 4.75916 16.4636 4.32539C17.3813 3.89163 18.3105 3.67474 19.2513 3.67474C20.907 3.67474 22.2932 4.23302 23.4097 5.34958C24.5263 6.46614 25.0846 7.8523 25.0846 9.50805C25.0846 11.6095 24.2582 13.5805 22.6054 15.421C20.9526 17.2615 19.1099 19.0986 17.0772 20.9324L15.4192 22.4378C15.0169 22.8132 14.5442 23.0028 14.0013 23.0066C13.4583 23.0103 12.9857 22.8244 12.5833 22.449ZM13.1622 8.21127C12.531 7.24951 11.8665 6.54465 11.1688 6.09669C10.471 5.6487 9.66516 5.42471 8.75127 5.42471C7.58461 5.42471 6.61238 5.8136 5.83461 6.59138C5.05683 7.36916 4.66794 8.34138 4.66794 9.50805C4.66794 10.4444 4.9697 11.4233 5.57321 12.4449C6.17673 13.4665 6.93431 14.4821 7.84594 15.4916C8.75759 16.5013 9.74515 17.4877 10.8086 18.451C11.8721 19.4142 12.8577 20.3094 13.7657 21.1366C13.833 21.1964 13.9115 21.2263 14.0013 21.2263C14.091 21.2263 14.1696 21.1964 14.2369 21.1366C15.1448 20.3094 16.1305 19.4142 17.1939 18.451C18.2574 17.4877 19.245 16.5013 20.1566 15.4916C21.0682 14.4821 21.8258 13.4665 22.4293 12.4449C23.0328 11.4233 23.3346 10.4444 23.3346 9.50805C23.3346 8.34138 22.9457 7.36916 22.1679 6.59138C21.3902 5.8136 20.4179 5.42471 19.2513 5.42471C18.3374 5.42471 17.5316 5.6487 16.8338 6.09669C16.136 6.54465 15.4716 7.24951 14.8404 8.21127C14.7417 8.36084 14.6175 8.47302 14.4679 8.54782C14.3184 8.62261 14.1628 8.66 14.0013 8.66C13.8397 8.66 13.6842 8.62261 13.5346 8.54782C13.385 8.47302 13.2609 8.36084 13.1622 8.21127Z" fill="#1C1B1F"/>
</g>
</svg>
